<svg width="38" height="38" viewBox="0 0 38 38" fill="none" xmlns="http://www.w3.org/2000/svg">
<path d="M29.0542 18.1292V14.2501C29.0542 12.5084 27.6292 11.0834 25.8875 11.0834H20.5833C19.9975 11.0834 19.4433 11.2734 19 11.5901C18.5567 11.2734 18.0025 11.0834 17.4167 11.0834H12.1125C10.3708 11.0834 8.94583 12.5084 8.94583 14.2501V18.1292C8.3125 18.8576 7.91667 19.8076 7.91667 20.8526V26.9167H10.2917V24.5417H27.7083V26.9167H30.0833V20.8526C30.0833 19.8076 29.6875 18.8576 29.0542 18.1292ZM26.5208 16.6251H20.1875V13.4584H26.5208V16.6251ZM11.4792 13.4584H17.8125V16.6251H11.4792V13.4584ZM27.7083 22.1667H10.2917V20.5834C10.2917 19.7126 11.0042 19.0001 11.875 19.0001H26.125C26.9958 19.0001 27.7083 19.7126 27.7083 20.5834V22.1667ZM31.6667 6.33341V31.6667H6.33333V6.33341H31.6667ZM31.6667 3.16675H6.33333C4.59167 3.16675 3.16667 4.59175 3.16667 6.33341V31.6667C3.16667 33.4084 4.59167 34.8334 6.33333 34.8334H31.6667C33.4083 34.8334 34.8333 33.4084 34.8333 31.6667V6.33341C34.8333 4.59175 33.4083 3.16675 31.6667 3.16675Z" fill="#193E80"/>
</svg>
