<svg width="16" height="16" viewBox="0 0 16 16" fill="none" xmlns="http://www.w3.org/2000/svg">
<path d="M12.6667 0.666748H3.33333C2.6 0.666748 2.00667 1.26675 2.00667 2.00008L2 10.6201C2 11.0801 2.23333 11.4867 2.58667 11.7267L8 15.3334L13.4067 11.7267C13.76 11.4867 13.9933 11.0801 13.9933 10.6201L14 2.00008C14 1.26675 13.4 0.666748 12.6667 0.666748ZM8 13.7334L3.33333 10.6267V2.00008H12.6667V10.6201L8 13.7334ZM6.66 8.78675L4.94 7.06008L4 8.00008L6.66667 10.6667L12 5.33341L11.0533 4.38675L6.66 8.78675Z" fill="#193E80"/>
</svg>
