<svg width="16" height="16" viewBox="0 0 16 16" fill="none" xmlns="http://www.w3.org/2000/svg">
<path d="M7.99992 1.33325C4.31992 1.33325 1.33325 4.31992 1.33325 7.99992C1.33325 11.6799 4.31992 14.6666 7.99992 14.6666C11.6799 14.6666 14.6666 11.6799 14.6666 7.99992C14.6666 4.31992 11.6799 1.33325 7.99992 1.33325ZM7.99992 13.3333C5.05992 13.3333 2.66659 10.9399 2.66659 7.99992C2.66659 5.05992 5.05992 2.66659 7.99992 2.66659C10.9399 2.66659 13.3333 5.05992 13.3333 7.99992C13.3333 10.9399 10.9399 13.3333 7.99992 13.3333ZM8.20659 7.42659C7.02659 7.12659 6.64659 6.79992 6.64659 6.31325C6.64659 5.75325 7.17325 5.35992 8.04659 5.35992C8.96659 5.35992 9.31325 5.79992 9.33992 6.45325H10.4799C10.4466 5.55992 9.89992 4.73992 8.81992 4.47325V3.33325H7.26659V4.45992C6.25992 4.67325 5.45325 5.32659 5.45325 6.33325C5.45325 7.52659 6.44659 8.12659 7.89325 8.47325C9.19325 8.77992 9.45325 9.23992 9.45325 9.71992C9.45325 10.0733 9.19325 10.6466 8.05325 10.6466C6.98659 10.6466 6.56659 10.1666 6.50659 9.55325H5.35992C5.42659 10.6866 6.26659 11.3266 7.26659 11.5333V12.6666H8.82659V11.5533C9.83992 11.3599 10.6399 10.7799 10.6466 9.70659C10.6399 8.23992 9.37992 7.73325 8.20659 7.42659Z" fill="black"/>
</svg>
