<svg width="16" height="16" viewBox="0 0 16 16" fill="none" xmlns="http://www.w3.org/2000/svg">
<path d="M8.00004 1.33325C4.32004 1.33325 1.33337 4.31992 1.33337 7.99992C1.33337 11.6799 4.32004 14.6666 8.00004 14.6666C11.68 14.6666 14.6667 11.6799 14.6667 7.99992C14.6667 4.31992 11.68 1.33325 8.00004 1.33325ZM8.00004 13.3333C5.06004 13.3333 2.66671 10.9399 2.66671 7.99992C2.66671 5.05992 5.06004 2.66659 8.00004 2.66659C10.94 2.66659 13.3334 5.05992 13.3334 7.99992C13.3334 10.9399 10.94 13.3333 8.00004 13.3333ZM8.20671 7.42659C7.02671 7.12659 6.64671 6.79992 6.64671 6.31325C6.64671 5.75325 7.17337 5.35992 8.04671 5.35992C8.96671 5.35992 9.31337 5.79992 9.34004 6.45325H10.48C10.4467 5.55992 9.90004 4.73992 8.82004 4.47325V3.33325H7.26671V4.45992C6.26004 4.67325 5.45337 5.32659 5.45337 6.33325C5.45337 7.52659 6.44671 8.12659 7.89337 8.47325C9.19337 8.77992 9.45337 9.23992 9.45337 9.71992C9.45337 10.0733 9.19337 10.6466 8.05337 10.6466C6.98671 10.6466 6.56671 10.1666 6.50671 9.55325H5.36004C5.42671 10.6866 6.26671 11.3266 7.26671 11.5333V12.6666H8.82671V11.5533C9.84004 11.3599 10.64 10.7799 10.6467 9.70659C10.64 8.23992 9.38004 7.73325 8.20671 7.42659Z" fill="#193E80"/>
</svg>
