<svg width="29" height="28" viewBox="0 0 29 28" fill="none" xmlns="http://www.w3.org/2000/svg">
<path d="M14.5 7.00008C15.8292 7.00008 16.9167 8.05008 16.9167 9.33342C16.9167 10.6167 15.8292 11.6667 14.5 11.6667C13.1708 11.6667 12.0833 10.6167 12.0833 9.33342C12.0833 8.05008 13.1708 7.00008 14.5 7.00008ZM14.5 18.6667C17.7625 18.6667 21.5083 20.1717 21.75 21.0001H7.25001C7.52793 20.1601 11.2496 18.6667 14.5 18.6667ZM14.5 4.66675C11.8296 4.66675 9.66668 6.75508 9.66668 9.33342C9.66668 11.9117 11.8296 14.0001 14.5 14.0001C17.1704 14.0001 19.3333 11.9117 19.3333 9.33342C19.3333 6.75508 17.1704 4.66675 14.5 4.66675ZM14.5 16.3334C11.2738 16.3334 4.83334 17.8967 4.83334 21.0001V23.3334H24.1667V21.0001C24.1667 17.8967 17.7263 16.3334 14.5 16.3334Z" fill="#193E80"/>
</svg>
