<svg width="22" height="22" viewBox="0 0 22 22" fill="none" xmlns="http://www.w3.org/2000/svg">
<path d="M11 5.40841C12.0634 5.40841 12.925 6.27008 12.925 7.33341C12.925 8.39675 12.0634 9.25842 11 9.25842C9.93669 9.25842 9.07502 8.39675 9.07502 7.33341C9.07502 6.27008 9.93669 5.40841 11 5.40841ZM11 13.6584C13.7225 13.6584 16.5917 14.9967 16.5917 15.5834V16.5917H5.40835V15.5834C5.40835 14.9967 8.27752 13.6584 11 13.6584ZM11 3.66675C8.97419 3.66675 7.33335 5.30758 7.33335 7.33341C7.33335 9.35925 8.97419 11.0001 11 11.0001C13.0259 11.0001 14.6667 9.35925 14.6667 7.33341C14.6667 5.30758 13.0259 3.66675 11 3.66675ZM11 11.9167C8.55252 11.9167 3.66669 13.1451 3.66669 15.5834V18.3334H18.3334V15.5834C18.3334 13.1451 13.4475 11.9167 11 11.9167Z" fill="black"/>
</svg>
