<svg width="38" height="38" viewBox="0 0 38 38" fill="none" xmlns="http://www.w3.org/2000/svg">
<path d="M26.9167 3.16675H11.0833C9.34166 3.16675 7.91666 4.59175 7.91666 6.33341V9.50008C7.91666 11.2417 9.34166 12.6667 11.0833 12.6667H26.9167C28.6583 12.6667 30.0833 11.2417 30.0833 9.50008V6.33341C30.0833 4.59175 28.6583 3.16675 26.9167 3.16675ZM26.9167 9.50008H11.0833V6.33341H26.9167V9.50008ZM31.6667 34.8334H6.33332C4.59166 34.8334 3.16666 33.4084 3.16666 31.6667V30.0834H34.8333V31.6667C34.8333 33.4084 33.4083 34.8334 31.6667 34.8334ZM29.3392 16.1342C28.8325 14.9942 27.6925 14.2501 26.4417 14.2501H11.5583C10.3075 14.2501 9.16749 14.9942 8.66082 16.1342L3.16666 28.5001H34.8333L29.3392 16.1342ZM15.0417 25.3334H13.4583C13.015 25.3334 12.6667 24.9851 12.6667 24.5417C12.6667 24.0984 13.015 23.7501 13.4583 23.7501H15.0417C15.485 23.7501 15.8333 24.0984 15.8333 24.5417C15.8333 24.9851 15.485 25.3334 15.0417 25.3334ZM15.0417 22.1667H13.4583C13.015 22.1667 12.6667 21.8184 12.6667 21.3751C12.6667 20.9317 13.015 20.5834 13.4583 20.5834H15.0417C15.485 20.5834 15.8333 20.9317 15.8333 21.3751C15.8333 21.8184 15.485 22.1667 15.0417 22.1667ZM15.0417 19.0001H13.4583C13.015 19.0001 12.6667 18.6517 12.6667 18.2084C12.6667 17.7651 13.015 17.4167 13.4583 17.4167H15.0417C15.485 17.4167 15.8333 17.7651 15.8333 18.2084C15.8333 18.6517 15.485 19.0001 15.0417 19.0001ZM19.7917 25.3334H18.2083C17.765 25.3334 17.4167 24.9851 17.4167 24.5417C17.4167 24.0984 17.765 23.7501 18.2083 23.7501H19.7917C20.235 23.7501 20.5833 24.0984 20.5833 24.5417C20.5833 24.9851 20.235 25.3334 19.7917 25.3334ZM19.7917 22.1667H18.2083C17.765 22.1667 17.4167 21.8184 17.4167 21.3751C17.4167 20.9317 17.765 20.5834 18.2083 20.5834H19.7917C20.235 20.5834 20.5833 20.9317 20.5833 21.3751C20.5833 21.8184 20.235 22.1667 19.7917 22.1667ZM19.7917 19.0001H18.2083C17.765 19.0001 17.4167 18.6517 17.4167 18.2084C17.4167 17.7651 17.765 17.4167 18.2083 17.4167H19.7917C20.235 17.4167 20.5833 17.7651 20.5833 18.2084C20.5833 18.6517 20.235 19.0001 19.7917 19.0001ZM24.5417 25.3334H22.9583C22.515 25.3334 22.1667 24.9851 22.1667 24.5417C22.1667 24.0984 22.515 23.7501 22.9583 23.7501H24.5417C24.985 23.7501 25.3333 24.0984 25.3333 24.5417C25.3333 24.9851 24.985 25.3334 24.5417 25.3334ZM24.5417 22.1667H22.9583C22.515 22.1667 22.1667 21.8184 22.1667 21.3751C22.1667 20.9317 22.515 20.5834 22.9583 20.5834H24.5417C24.985 20.5834 25.3333 20.9317 25.3333 21.3751C25.3333 21.8184 24.985 22.1667 24.5417 22.1667ZM24.5417 19.0001H22.9583C22.515 19.0001 22.1667 18.6517 22.1667 18.2084C22.1667 17.7651 22.515 17.4167 22.9583 17.4167H24.5417C24.985 17.4167 25.3333 17.7651 25.3333 18.2084C25.3333 18.6517 24.985 19.0001 24.5417 19.0001Z" fill="#193E80"/>
</svg>
