<svg width="16" height="16" viewBox="0 0 16 16" fill="none" xmlns="http://www.w3.org/2000/svg">
<path d="M13 2.33325L12 1.33325L11 2.33325L10 1.33325L9 2.33325L8 1.33325L7 2.33325L6 1.33325L5 2.33325L4 1.33325L3 2.33325L2 1.33325V14.6666L3 13.6666L4 14.6666L5 13.6666L6 14.6666L7 13.6666L8 14.6666L9 13.6666L10 14.6666L11 13.6666L12 14.6666L13 13.6666L14 14.6666V1.33325L13 2.33325ZM12.6667 12.7266H3.33333V3.27325H12.6667V12.7266ZM4 9.99992H12V11.3333H4V9.99992ZM4 7.33325H12V8.66658H4V7.33325ZM4 4.66659H12V5.99992H4V4.66659Z" fill="#193E80"/>
</svg>
