<svg width="41" height="41" viewBox="0 0 41 41" fill="none" xmlns="http://www.w3.org/2000/svg">
<path d="M33.3125 5.97925L30.75 3.41675L28.1875 5.97925L25.625 3.41675L23.0625 5.97925L20.5 3.41675L17.9375 5.97925L15.375 3.41675L12.8125 5.97925L10.25 3.41675V27.3334H5.125V32.4584C5.125 35.2942 7.41417 37.5834 10.25 37.5834H30.75C33.5858 37.5834 35.875 35.2942 35.875 32.4584V3.41675L33.3125 5.97925ZM25.625 34.1667H10.25C9.31042 34.1667 8.54167 33.398 8.54167 32.4584V30.7501H25.625V34.1667ZM32.4583 32.4584C32.4583 33.398 31.6896 34.1667 30.75 34.1667C29.8104 34.1667 29.0417 33.398 29.0417 32.4584V27.3334H13.6667V8.54175H32.4583V32.4584Z" fill="#193E80"/>
<path d="M25.625 11.9584H15.375V15.3751H25.625V11.9584Z" fill="#193E80"/>
<path d="M30.75 11.9584H27.3333V15.3751H30.75V11.9584Z" fill="#193E80"/>
<path d="M25.625 17.0834H15.375V20.5001H25.625V17.0834Z" fill="#193E80"/>
<path d="M30.75 17.0834H27.3333V20.5001H30.75V17.0834Z" fill="#193E80"/>
</svg>
