<svg width="22" height="22" viewBox="0 0 22 22" fill="none" xmlns="http://www.w3.org/2000/svg">
<path d="M8.24998 10.9999C10.0191 10.9999 11.4583 9.56075 11.4583 7.79158C11.4583 6.02242 10.0191 4.58325 8.24998 4.58325C6.48081 4.58325 5.04165 6.02242 5.04165 7.79158C5.04165 9.56075 6.48081 10.9999 8.24998 10.9999ZM8.24998 6.41659C9.01081 6.41659 9.62498 7.03075 9.62498 7.79158C9.62498 8.55242 9.01081 9.16658 8.24998 9.16658C7.48915 9.16658 6.87498 8.55242 6.87498 7.79158C6.87498 7.03075 7.48915 6.41659 8.24998 6.41659ZM8.29581 15.5833H4.37248C5.27998 15.1249 6.84748 14.6666 8.24998 14.6666C8.35081 14.6666 8.46081 14.6758 8.56165 14.6758C8.87331 14.0066 9.41415 13.4566 10.065 13.0166C9.39581 12.8974 8.76331 12.8333 8.24998 12.8333C6.10498 12.8333 1.83331 13.9058 1.83331 16.0416V17.4166H8.24998V16.0416C8.24998 15.8858 8.26831 15.7299 8.29581 15.5833ZM15.125 13.2916C13.4383 13.2916 10.0833 14.2174 10.0833 16.0416V17.4166H20.1666V16.0416C20.1666 14.2174 16.8116 13.2916 15.125 13.2916ZM16.2341 11.6233C16.9308 11.2291 17.4166 10.4866 17.4166 9.62492C17.4166 8.35992 16.39 7.33325 15.125 7.33325C13.86 7.33325 12.8333 8.35992 12.8333 9.62492C12.8333 10.4866 13.3191 11.2291 14.0158 11.6233C14.3458 11.8066 14.7216 11.9166 15.125 11.9166C15.5283 11.9166 15.9041 11.8066 16.2341 11.6233Z" fill="black"/>
</svg>
