<svg width="55" height="55" viewBox="0 0 55 55" fill="none" xmlns="http://www.w3.org/2000/svg">
<path d="M41.25 9.16675H13.75C8.68541 9.16675 4.58333 13.2688 4.58333 18.3334V36.6667C4.58333 41.7313 8.68541 45.8334 13.75 45.8334H41.25C46.3146 45.8334 50.4167 41.7313 50.4167 36.6667V18.3334C50.4167 13.2688 46.3146 9.16675 41.25 9.16675ZM36.9875 31.5563C36.4375 32.0147 35.6812 32.198 34.9708 32.0147L9.51041 25.7813C10.1979 24.1084 11.825 22.9167 13.75 22.9167H41.25C42.7854 22.9167 44.1375 23.6959 44.9854 24.8417L36.9875 31.5563ZM13.75 13.7501H41.25C43.7708 13.7501 45.8333 15.8126 45.8333 18.3334V19.5938C44.4812 18.8147 42.9229 18.3334 41.25 18.3334H13.75C12.0771 18.3334 10.5187 18.8147 9.16666 19.5938V18.3334C9.16666 15.8126 11.2292 13.7501 13.75 13.7501Z" fill="#193E80"/>
</svg>
